<?xml version="1.0" standalone="no"?>
<!DOCTYPE svg PUBLIC "-//W3C//DTD SVG 20010904//EN"
 "http://www.w3.org/TR/2001/REC-SVG-20010904/DTD/svg10.dtd">
<svg version="1.0" xmlns="http://www.w3.org/2000/svg"
 width="512.000000pt" height="512.000000pt" viewBox="0 0 512.000000 512.000000"
 preserveAspectRatio="xMidYMid meet">
<metadata>
Created by potrace 1.11, written by Peter Selinger 2001-2013
</metadata>
<g transform="translate(0.000000,512.000000) scale(0.100000,-0.100000)"
fill="#000000" stroke="none">
<path d="M0 2560 l0 -2560 2560 0 2560 0 0 2560 0 2560 -2560 0 -2560 0 0
-2560z m2745 1935 c820 -100 1497 -459 1606 -853 33 -118 19 -266 -40 -418
-129 -333 -512 -565 -1016 -617 l-130 -13 70 -7 c129 -13 291 -70 388 -139
104 -73 204 -194 258 -314 182 -401 22 -959 -358 -1250 -344 -264 -744 -336
-1338 -243 -240 38 -438 88 -694 174 -153 51 -174 63 -197 108 -15 29 -16 63
-11 332 8 349 21 609 42 820 68 677 223 1221 450 1575 41 64 50 71 130 111 90
45 171 59 248 45 50 -9 121 -61 162 -116 l36 -48 -47 -72 c-254 -393 -395
-1128 -398 -2070 -1 -344 -4 -334 99 -368 208 -68 503 -98 700 -73 260 34 477
138 603 289 99 119 144 227 163 386 21 177 -10 291 -108 396 -90 97 -181 137
-527 230 -262 71 -367 127 -419 224 -18 34 -22 58 -22 133 0 83 2 94 24 117
41 43 80 48 364 41 218 -6 279 -4 361 9 167 28 308 84 432 172 185 131 281
355 229 532 -21 71 -109 163 -209 221 -156 89 -432 163 -716 192 -159 16 -519
16 -675 0 -367 -38 -672 -133 -835 -260 -73 -57 -85 -72 -174 -223 -84 -142
-153 -234 -231 -307 -73 -68 -118 -84 -159 -57 -41 26 -51 76 -50 241 2 125 6
166 27 246 78 297 263 520 552 666 223 113 486 182 790 207 104 8 495 -3 620
-19z"/>
</g>
</svg>
